<svg width="78" height="78" viewBox="0 0 78 78" fill="none" xmlns="http://www.w3.org/2000/svg">
<circle cx="35" cy="42" r="30" fill="url(#paint0_linear_1215_28)"/>
<path d="M56.5962 30.3611L53.6376 33.3906C53.3359 33.6994 52.8482 33.6994 52.5466 33.3906L45.4228 26.0962C45.1211 25.7874 45.1211 25.2879 45.4228 24.9791L48.3814 21.9496C49.5815 20.7207 51.5325 20.7207 52.7391 21.9496L56.5962 25.8991C57.8028 27.1279 57.8028 29.1257 56.5962 30.3611ZM42.8813 27.5814L26.028 44.8381L24.6675 52.8225C24.4813 53.9002 25.3991 54.8334 26.4516 54.6493L34.2493 53.2496L51.1025 35.9929C51.4042 35.684 51.4042 35.1846 51.1025 34.8757L43.9787 27.5814C43.6707 27.2725 43.1829 27.2725 42.8813 27.5814ZM32.6063 43.3595C32.2533 42.9981 32.2533 42.4198 32.6063 42.0584L42.4898 31.9383C42.8428 31.5768 43.4076 31.5768 43.7605 31.9383C44.1135 32.2997 44.1135 32.878 43.7605 33.2394L33.8771 43.3595C33.5241 43.721 32.9593 43.721 32.6063 43.3595ZM30.2895 48.8862H33.3701V51.2716L29.2305 52.0142L27.2346 49.9704L27.9598 45.7318H30.2895V48.8862Z" fill="black"/>
<path d="M52.0549 34.4319C51.6804 33.4005 54.093 39.5603 52.0549 34.4319C54.8447 42.1159 52.3991 51.112 45.5287 56.2631C37.2591 62.4634 25.7342 60.7263 19.7636 52.377C13.7939 44.029 15.6543 32.254 23.9253 26.0528C30.7946 20.9024 39.9098 21.2293 46.222 26.2733C47.0694 26.9504 45.6511 27.0234 46.5298 26.3646C47.8073 25.4068 47.7415 27.3744 46.5298 26.3646C37.979 19.2378 29.4679 13.7497 20.06 20.8802C8.95678 29.2958 6.52105 45.0894 14.5903 56.323C22.64 67.5293 39.3699 69.8288 50.4939 61.4884C59.8975 54.438 60.9883 43.2789 77.9945 42.0842C77.4225 40.6074 57.0617 40.4026 52.0549 34.4319Z" fill="black"/>
<defs>
<linearGradient id="paint0_linear_1215_28" x1="5" y1="12" x2="51.875" y2="72" gradientUnits="userSpaceOnUse">
<stop stop-color="#C3DBFF"/>
<stop offset="1" stop-color="#A887EA"/>
</linearGradient>
</defs>
</svg>
